<svg width="27.500000" height="32.500000" viewBox="0 0 27.5 32.5" fill="none" xmlns="http://www.w3.org/2000/svg" xmlns:xlink="http://www.w3.org/1999/xlink">
	<desc>
			Created with Pixso.
	</desc>
	<defs/>
	<g opacity="0.240000">
		<path id="Combined-Shape" d="M0 25.4091C0 27.3655 1.6438 28.9545 3.66919 28.9545L7.33325 28.9571C7.33325 30.9143 8.97485 32.5 11 32.5C13.0195 32.5 14.6646 30.913 14.6667 28.9545L18.3308 28.9545C20.3586 28.9545 22 27.3681 22 25.4091C22 24.119 21.2793 22.9664 20.1667 22.3454L20.1667 17.7318C20.1667 13.6419 17.3323 10.2034 13.4443 9.1765L13.4443 8.86363C13.4443 7.55824 12.3501 6.5 11 6.5C9.6499 6.5 8.55566 7.55824 8.55566 8.86363L8.55566 9.1765C4.66846 10.2037 1.83325 13.6418 1.83325 17.7256C1.83325 17.7256 1.83838 21.9764 1.83838 22.335C0.727051 22.9532 0 24.1105 0 25.4091ZM17.7222 17.7318L17.7222 23.4427C17.7222 23.7702 17.9922 24.1032 18.3181 24.1847L18.6384 24.2648C19.1733 24.3984 19.5557 24.8689 19.5557 25.4091C19.5557 26.0624 19.0088 26.5909 18.3308 26.5909L3.66919 26.5909C2.99365 26.5909 2.44434 26.06 2.44434 25.4091C2.44434 24.8666 2.8252 24.3979 3.36035 24.2647L3.69141 24.1823C4.01538 24.1017 4.27783 23.7732 4.27783 23.4426L4.27783 17.7256C4.27783 14.1364 7.28687 11.2273 11 11.2273C14.7148 11.2273 17.7222 14.1354 17.7222 17.7318ZM9.77783 28.9545C9.77783 29.6083 10.3245 30.1364 11 30.1364C11.6709 30.1364 12.2202 29.6064 12.2222 28.9545L9.77783 28.9545Z" clip-rule="evenodd" fill="#000000" fill-opacity="1.000000" fill-rule="evenodd"/>
	</g>
	<path id="Oval" d="M18 18.5C22.9705 18.5 27 14.4706 27 9.5C27 4.52943 22.9705 0.5 18 0.5C13.0295 0.5 9 4.52943 9 9.5C9 14.4706 13.0295 18.5 18 18.5Z" fill="#FF0000" fill-opacity="1.000000" fill-rule="nonzero"/>
	<path id="Oval" d="M27 9.5C27 4.52943 22.9705 0.5 18 0.5C13.0295 0.5 9 4.52943 9 9.5C9 14.4706 13.0295 18.5 18 18.5C22.9705 18.5 27 14.4706 27 9.5Z" stroke="#FFFFFF" stroke-opacity="1.000000" stroke-width="1.000000"/>
	<path id="3" d="M18.4688 13.6201Q17.5928 13.6201 16.7871 13.3623Q15.9844 13.1045 15.4688 12.6475L15.9727 11.4844Q16.5352 11.915 17.1416 12.1201Q17.748 12.3252 18.4189 12.3252Q19.2363 12.3252 19.6553 12Q20.0771 11.6748 20.0771 11.0508Q20.0771 10.4531 19.6611 10.1484Q19.248 9.84082 18.457 9.84082L17.0889 9.84082L17.0889 8.60449L18.3252 8.60449Q19.0078 8.60449 19.415 8.26758Q19.8252 7.93066 19.8252 7.34473Q19.8252 6.79102 19.4473 6.50391Q19.0693 6.2168 18.3604 6.2168Q17.0889 6.2168 16.1162 7.08105L15.6123 5.92676Q16.1279 5.44922 16.8896 5.18555Q17.6514 4.91895 18.4922 4.91895Q19.8105 4.91895 20.5605 5.51367Q21.3105 6.1084 21.3105 7.16309Q21.3105 7.91895 20.8857 8.4668Q20.4609 9.01172 19.7168 9.19336L19.7168 9.04688Q20.5928 9.19336 21.0791 9.76465Q21.5654 10.333 21.5654 11.1826Q21.5654 12.3105 20.7363 12.9668Q19.9072 13.6201 18.4688 13.6201Z" fill="#FFFFFF" fill-opacity="1.000000" fill-rule="evenodd"/>
</svg>
