<svg width="14.000000" height="13.000000" viewBox="0 0 14 13" fill="none" xmlns="http://www.w3.org/2000/svg" xmlns:xlink="http://www.w3.org/1999/xlink">
	<desc>
			Created with Pixso.
	</desc>
	<defs/>
	<g opacity="0.240000">
		<path id="Combined-Shape" d="M0 1.26715C0 0.567749 0.596924 0.00195312 1.33301 0.00195312C1.33301 0.00195312 8.04907 -0.00244141 9.00293 0.00195312C11.0813 -0.0193481 12.3926 0.545288 12.9583 2.00177C13.1101 2.37421 13.9502 5.58313 13.9575 5.61902C14.1965 6.68292 13.4011 7.61218 12.2412 7.61218L9.83521 7.6123C9.64966 7.6123 9.52832 7.75153 9.5647 7.92389C9.5647 7.92389 9.74341 8.76794 9.78223 8.97717C9.92749 9.76007 10.0068 10.3756 9.99951 10.7934C10.012 11.4536 9.63916 12.0073 9.0498 12.4442C8.73242 12.6794 8.24683 12.8986 8.24683 12.8986C7.74146 13.1412 7.13599 12.9317 6.90137 12.4493C6.90137 12.4493 4.98706 8.48834 4.82788 8.18585C4.6687 7.88342 4.25195 7.612 3.88257 7.612L1.33301 7.612C0.597412 7.612 0 7.04553 0 6.3468L0 1.26715ZM11.6047 2.22156C11.231 1.53943 10.4976 1.255 9.01733 1.27026C8.75854 1.2691 6.11499 1.26825 3.99976 1.2677L3.99976 6.3468C4.84863 6.39197 5.68188 6.9209 6.03809 7.65332L7.95996 11.6053C7.95996 11.6053 8.19434 11.4703 8.23022 11.4437C8.54907 11.2074 8.67017 11.0056 8.6665 10.8163L8.6665 10.7722C8.67163 10.4703 8.60693 9.94 8.46924 9.19769C8.45654 9.12964 8.26465 8.20691 8.25757 8.17432C8.05518 7.21326 8.81055 6.34406 9.83521 6.34399L12.241 6.34381C12.5544 6.34381 12.7148 6.15704 12.6519 5.8786C12.6492 5.86877 12.5979 5.67859 12.5203 5.3924L11.6682 5.3924C11.2952 5.3924 10.9995 5.10846 10.9995 4.75824C10.9995 4.40552 11.2988 4.12402 11.6682 4.12402L12.1758 4.12402C12.1167 3.90704 12.0576 3.69098 12.0027 3.48987L11.335 3.48987C10.9617 3.48987 10.6663 3.20593 10.6663 2.85571C10.6663 2.50305 10.9656 2.22156 11.335 2.22156L11.6047 2.22156ZM2.6665 6.34363L1.33301 6.34363L1.33325 1.26715C1.33325 1.26715 1.8728 1.26721 2.6665 1.2674L2.6665 6.34363Z" clip-rule="evenodd" fill="#000000" fill-opacity="1.000000" fill-rule="evenodd"/>
	</g>
</svg>
