<svg width="33.000000" height="24.000000" viewBox="0 0 33 24" fill="none" xmlns="http://www.w3.org/2000/svg" xmlns:xlink="http://www.w3.org/1999/xlink">
	<desc>
			Created with Pixso.
	</desc>
	<defs/>
	<g opacity="0.500000">
		<mask id="mask_0_621" fill="white">
			<path id="Full Screen" d="M0 9L4.5 9L4.5 4.5L9 4.5L9 0L0 0L0 9ZM24 4.5L24 0L33 0L33 9L28.5 9L28.5 4.5L24 4.5ZM0 15L4.5 15L4.5 19.5L9 19.5L9 24L0 24L0 15ZM24 19.5L24 24L33 24L33 15L28.5 15L28.5 19.5L24 19.5Z" clip-rule="evenodd" fill="" fill-opacity="1.000000" fill-rule="evenodd"/>
		</mask>
		<path id="Full Screen" d="M0 9L4.5 9L4.5 4.5L9 4.5L9 0L0 0L0 9ZM24 4.5L24 0L33 0L33 9L28.5 9L28.5 4.5L24 4.5ZM0 15L4.5 15L4.5 19.5L9 19.5L9 24L0 24L0 15ZM24 19.5L24 24L33 24L33 15L28.5 15L28.5 19.5L24 19.5Z" clip-rule="evenodd" fill="#FFFFFF" fill-opacity="1.000000" fill-rule="evenodd" mask="url(#mask_0_621)"/>
		<path id="Full Screen" d="" fill="#000000" fill-opacity="0.000000" fill-rule="nonzero"/>
	</g>
</svg>
