<svg width="20.000000" height="17.000000" viewBox="0 0 20 17" fill="none" xmlns="http://www.w3.org/2000/svg" xmlns:xlink="http://www.w3.org/1999/xlink">
	<desc>
			Created with Pixso.
	</desc>
	<defs/>
	<path id="Combined Shape" d="M18.6365 3L1.36353 3C0.610107 3 0 2.328 0 1.5C0 0.671997 0.610107 0 1.36353 0L18.6365 0C19.3892 0 20 0.671997 20 1.5C20 2.328 19.3892 3 18.6365 3ZM1.36353 7L18.6365 7C19.3892 7 20 7.672 20 8.5C20 9.328 19.3892 10 18.6365 10L1.36353 10C0.610107 10 0 9.328 0 8.5C0 7.672 0.610107 7 1.36353 7ZM18.6365 14L1.36353 14C0.610107 14 0 14.672 0 15.5C0 16.328 0.610107 17 1.36353 17L18.6365 17C19.3892 17 20 16.328 20 15.5C20 14.672 19.3892 14 18.6365 14Z" clip-rule="evenodd" fill="#1F2022" fill-opacity="1.000000" fill-rule="evenodd"/>
</svg>
