<svg width="14.000000" height="13.000000" viewBox="0 0 14 13" fill="none" xmlns="http://www.w3.org/2000/svg" xmlns:xlink="http://www.w3.org/1999/xlink">
	<desc>
			Created with Pixso.
	</desc>
	<defs/>
	<g opacity="0.240000">
		<path id="Combined-Shape" d="M0 11.7328C0 12.4323 0.596924 12.998 1.33301 12.998C1.33301 12.998 8.04907 13.0024 9.00293 12.998C11.0813 13.0193 12.3926 12.4547 12.9583 10.9982C13.1101 10.6258 13.9502 7.41687 13.9575 7.38098C14.1965 6.31708 13.4011 5.38782 12.2412 5.38782L9.83521 5.3877C9.64966 5.3877 9.52832 5.24847 9.5647 5.07611C9.5647 5.07611 9.74341 4.23206 9.78223 4.02283C9.92749 3.23993 10.0068 2.62439 9.99951 2.2066C10.012 1.54645 9.63916 0.992737 9.0498 0.555847C8.73242 0.320557 8.24683 0.101379 8.24683 0.101379C7.74146 -0.141174 7.13599 0.0682983 6.90137 0.55072C6.90137 0.55072 4.98706 4.51166 4.82788 4.81415C4.6687 5.11658 4.25195 5.388 3.88257 5.388L1.33301 5.388C0.597412 5.388 0 5.95447 0 6.6532L0 11.7328ZM11.6047 10.7784C11.231 11.4606 10.4976 11.745 9.01733 11.7297C8.75854 11.7309 6.11499 11.7318 3.99976 11.7323L3.99976 6.6532C4.84863 6.60803 5.68188 6.0791 6.03809 5.34668L7.95996 1.39471C7.95996 1.39471 8.19434 1.52972 8.23022 1.55627C8.54907 1.7926 8.67017 1.99438 8.6665 2.18372L8.6665 2.22778C8.67163 2.52966 8.60693 3.06 8.46924 3.80231C8.45654 3.87036 8.26465 4.79309 8.25757 4.82568C8.05518 5.78674 8.81055 6.65594 9.83521 6.65601L12.241 6.65619C12.5544 6.65619 12.7148 6.84296 12.6519 7.1214C12.6492 7.13123 12.5979 7.32141 12.5203 7.6076L11.6682 7.6076C11.2952 7.6076 10.9995 7.89154 10.9995 8.24176C10.9995 8.59448 11.2988 8.87598 11.6682 8.87598L12.1758 8.87598C12.1167 9.09296 12.0576 9.30902 12.0027 9.51013L11.335 9.51013C10.9617 9.51013 10.6663 9.79407 10.6663 10.1443C10.6663 10.4969 10.9656 10.7784 11.335 10.7784L11.6047 10.7784ZM2.6665 6.65637L1.33301 6.65637L1.33325 11.7328C1.33325 11.7328 1.8728 11.7328 2.6665 11.7326L2.6665 6.65637Z" clip-rule="evenodd" fill="#000000" fill-opacity="1.000000" fill-rule="evenodd"/>
	</g>
</svg>
