<svg width="28.000000" height="6.000000" viewBox="0 0 28 6" fill="none" xmlns="http://www.w3.org/2000/svg" xmlns:xlink="http://www.w3.org/1999/xlink">
	<desc>
			Created with Pixso.
	</desc>
	<defs/>
	<path id="More" d="M3 6C4.65674 6 6 4.65686 6 3C6 1.34314 4.65674 0 3 0C1.34326 0 0 1.34314 0 3C0 4.65686 1.34326 6 3 6ZM14 6C15.6567 6 17 4.65686 17 3C17 1.34314 15.6567 0 14 0C12.3433 0 11 1.34314 11 3C11 4.65686 12.3433 6 14 6ZM28 3C28 4.65686 26.6567 6 25 6C23.3433 6 22 4.65686 22 3C22 1.34314 23.3433 0 25 0C26.6567 0 28 1.34314 28 3Z" clip-rule="evenodd" fill="#000000" fill-opacity="1.000000" fill-rule="evenodd"/>
</svg>
