<svg width="27.000000" height="27.000000" viewBox="0 0 27 27" fill="none" xmlns="http://www.w3.org/2000/svg" xmlns:xlink="http://www.w3.org/1999/xlink">
	<desc>
			Created with Pixso.
	</desc>
	<defs/>
	<g opacity="0.500000">
		<mask id="mask_0_613" fill="white">
			<path id="Settings" d="M23.415 15.525L27 15.525L27 11.475L23.415 11.475C23.1599 10.185 22.6499 8.98499 21.9451 7.92001L24.4651 5.39999L21.6001 2.535L19.0801 5.05499C18.0149 4.35001 16.8149 3.84 15.5249 3.57001L15.5249 0L11.4751 0L11.4751 3.57001C10.1699 3.84 8.96997 4.35001 7.90503 5.05499L5.38501 2.535L2.52002 5.39999L5.04004 7.92001C4.33496 8.98499 3.82495 10.185 3.57007 11.475L0 11.475L0 15.525L3.57007 15.525C3.84009 16.815 4.3501 18.015 5.05493 19.08L2.52002 21.615L5.38501 24.48L7.91992 21.945C8.98511 22.65 10.1851 23.16 11.4751 23.415L11.4751 27L15.5249 27L15.5249 23.415C16.8149 23.16 18 22.65 19.0649 21.945L21.6001 24.48L24.4651 21.615L21.9299 19.08C22.635 18.015 23.145 16.815 23.415 15.525ZM7.42505 13.5C7.42505 16.845 10.1399 19.575 13.5 19.575C16.845 19.575 19.575 16.845 19.575 13.5C19.575 10.14 16.845 7.42499 13.5 7.42499C10.1399 7.42499 7.42505 10.14 7.42505 13.5Z" clip-rule="evenodd" fill="" fill-opacity="1.000000" fill-rule="evenodd"/>
		</mask>
		<path id="Settings" d="M23.415 15.525L27 15.525L27 11.475L23.415 11.475C23.1599 10.185 22.6499 8.98499 21.9451 7.92001L24.4651 5.39999L21.6001 2.535L19.0801 5.05499C18.0149 4.35001 16.8149 3.84 15.5249 3.57001L15.5249 0L11.4751 0L11.4751 3.57001C10.1699 3.84 8.96997 4.35001 7.90503 5.05499L5.38501 2.535L2.52002 5.39999L5.04004 7.92001C4.33496 8.98499 3.82495 10.185 3.57007 11.475L0 11.475L0 15.525L3.57007 15.525C3.84009 16.815 4.3501 18.015 5.05493 19.08L2.52002 21.615L5.38501 24.48L7.91992 21.945C8.98511 22.65 10.1851 23.16 11.4751 23.415L11.4751 27L15.5249 27L15.5249 23.415C16.8149 23.16 18 22.65 19.0649 21.945L21.6001 24.48L24.4651 21.615L21.9299 19.08C22.635 18.015 23.145 16.815 23.415 15.525ZM7.42505 13.5C7.42505 16.845 10.1399 19.575 13.5 19.575C16.845 19.575 19.575 16.845 19.575 13.5C19.575 10.14 16.845 7.42499 13.5 7.42499C10.1399 7.42499 7.42505 10.14 7.42505 13.5Z" clip-rule="evenodd" fill="#FFFFFF" fill-opacity="1.000000" fill-rule="evenodd" mask="url(#mask_0_613)"/>
		<path id="Settings" d="" fill="#000000" fill-opacity="0.000000" fill-rule="nonzero"/>
	</g>
</svg>
