<svg width="27.000000" height="18.000000" viewBox="0 0 27 18" fill="none" xmlns="http://www.w3.org/2000/svg" xmlns:xlink="http://www.w3.org/1999/xlink">
	<desc>
			Created with Pixso.
	</desc>
	<defs/>
	<g opacity="0.500000">
		<mask id="mask_0_627" fill="white">
			<path id="Subtitles" d="M0 18L27 18L27 0L0 0L0 18ZM12.075 11.25C11.865 11.685 11.5801 12.06 11.2351 12.36C10.8899 12.66 10.4851 12.9 10.0349 13.05C9.57007 13.215 9.06006 13.29 8.50488 13.29C7.81494 13.29 7.18506 13.185 6.64502 12.96C6.09009 12.72 5.625 12.405 5.25 12.015C4.86011 11.61 4.57495 11.13 4.36499 10.59C4.16992 10.05 4.06494 9.465 4.06494 8.83499C4.06494 8.20499 4.16992 7.60501 4.36499 7.04999C4.57495 6.51001 4.86011 6.03 5.25 5.60999C5.625 5.20499 6.09009 4.89001 6.64502 4.64999C7.18506 4.42499 7.81494 4.30499 8.50488 4.30499C9 4.30499 9.46509 4.36499 9.91504 4.51501C10.3501 4.64999 10.74 4.845 11.1001 5.10001C11.4451 5.37 11.73 5.685 11.9551 6.07501C12.1951 6.465 12.3301 6.89999 12.3899 7.39499L10.47 7.39499C10.4399 7.185 10.365 6.98999 10.2451 6.81C10.125 6.61499 9.9751 6.465 9.79492 6.32999C9.62988 6.19501 9.41992 6.09 9.20996 6.01501C8.96997 5.92499 8.74512 5.89499 8.50488 5.89499C8.05493 5.89499 7.67993 5.97 7.36499 6.13501C7.05005 6.29999 6.79492 6.52499 6.6001 6.81C6.40503 7.07999 6.27002 7.39499 6.17993 7.755Q6.04492 8.27249 6.04492 8.83499C6.04492 9.20999 6.09009 9.55499 6.17993 9.89999C6.27002 10.23 6.40503 10.545 6.6001 10.815C6.79492 11.085 7.05005 11.31 7.36499 11.475C7.67993 11.64 8.05493 11.715 8.50488 11.715C9.10498 11.715 9.58496 11.55 9.91504 11.19Q9.99268 11.109 10.061 11.021L10.061 11.0209Q10.4495 10.5218 10.5449 9.79501L12.4651 9.79501C12.4199 10.335 12.2849 10.815 12.075 11.25ZM21.7351 12.36C22.0801 12.06 22.3501 11.7 22.5601 11.265C22.77 10.83 22.905 10.335 22.95 9.81L21.03 9.81C20.9551 10.38 20.76 10.845 20.415 11.205C20.0701 11.55 19.5901 11.73 18.99 11.73C18.54 11.73 18.165 11.64 17.8501 11.49C17.55 11.325 17.2949 11.1 17.1001 10.83C16.905 10.56 16.7549 10.245 16.665 9.89999C16.5901 9.57001 16.5449 9.20999 16.5449 8.85001C16.5449 8.47501 16.5901 8.11499 16.665 7.755C16.7549 7.41 16.905 7.095 17.1001 6.81C17.2949 6.54001 17.55 6.315 17.8501 6.14999C18.165 5.98499 18.54 5.91 18.99 5.91C19.23 5.91 19.47 5.94 19.6951 6.01501C19.905 6.09 20.115 6.19501 20.2949 6.32999C20.4751 6.48001 20.6101 6.63 20.73 6.81C20.8501 6.98999 20.925 7.185 20.9551 7.41L22.875 7.41C22.8149 6.91501 22.6799 6.465 22.4551 6.09C22.23 5.70001 21.9299 5.37 21.585 5.11499C21.24 4.85999 20.835 4.64999 20.3999 4.51501C19.95 4.38 19.4851 4.32001 18.99 4.32001C18.3 4.32001 17.6851 4.42499 17.1299 4.66501C16.575 4.89001 16.1101 5.22 15.7351 5.625C15.3601 6.03 15.0601 6.51001 14.865 7.065C14.655 7.62 14.55 8.20499 14.55 8.85001Q14.55 9.79501 14.865 10.605C15.0601 11.145 15.3601 11.625 15.7351 12.015Q15.782 12.0656 15.8306 12.1144Q16.3669 12.6506 17.1299 12.96C17.6851 13.2 18.3 13.305 18.99 13.305C19.5449 13.305 20.0549 13.23 20.52 13.065C20.9851 12.9 21.3899 12.675 21.7351 12.36Z" clip-rule="evenodd" fill="" fill-opacity="1.000000" fill-rule="evenodd"/>
		</mask>
		<path id="Subtitles" d="M0 18L27 18L27 0L0 0L0 18ZM12.075 11.25C11.865 11.685 11.5801 12.06 11.2351 12.36C10.8899 12.66 10.4851 12.9 10.0349 13.05C9.57007 13.215 9.06006 13.29 8.50488 13.29C7.81494 13.29 7.18506 13.185 6.64502 12.96C6.09009 12.72 5.625 12.405 5.25 12.015C4.86011 11.61 4.57495 11.13 4.36499 10.59C4.16992 10.05 4.06494 9.465 4.06494 8.83499C4.06494 8.20499 4.16992 7.60501 4.36499 7.04999C4.57495 6.51001 4.86011 6.03 5.25 5.60999C5.625 5.20499 6.09009 4.89001 6.64502 4.64999C7.18506 4.42499 7.81494 4.30499 8.50488 4.30499C9 4.30499 9.46509 4.36499 9.91504 4.51501C10.3501 4.64999 10.74 4.845 11.1001 5.10001C11.4451 5.37 11.73 5.685 11.9551 6.07501C12.1951 6.465 12.3301 6.89999 12.3899 7.39499L10.47 7.39499C10.4399 7.185 10.365 6.98999 10.2451 6.81C10.125 6.61499 9.9751 6.465 9.79492 6.32999C9.62988 6.19501 9.41992 6.09 9.20996 6.01501C8.96997 5.92499 8.74512 5.89499 8.50488 5.89499C8.05493 5.89499 7.67993 5.97 7.36499 6.13501C7.05005 6.29999 6.79492 6.52499 6.6001 6.81C6.40503 7.07999 6.27002 7.39499 6.17993 7.755Q6.04492 8.27249 6.04492 8.83499C6.04492 9.20999 6.09009 9.55499 6.17993 9.89999C6.27002 10.23 6.40503 10.545 6.6001 10.815C6.79492 11.085 7.05005 11.31 7.36499 11.475C7.67993 11.64 8.05493 11.715 8.50488 11.715C9.10498 11.715 9.58496 11.55 9.91504 11.19Q9.99268 11.109 10.061 11.021L10.061 11.0209Q10.4495 10.5218 10.5449 9.79501L12.4651 9.79501C12.4199 10.335 12.2849 10.815 12.075 11.25ZM21.7351 12.36C22.0801 12.06 22.3501 11.7 22.5601 11.265C22.77 10.83 22.905 10.335 22.95 9.81L21.03 9.81C20.9551 10.38 20.76 10.845 20.415 11.205C20.0701 11.55 19.5901 11.73 18.99 11.73C18.54 11.73 18.165 11.64 17.8501 11.49C17.55 11.325 17.2949 11.1 17.1001 10.83C16.905 10.56 16.7549 10.245 16.665 9.89999C16.5901 9.57001 16.5449 9.20999 16.5449 8.85001C16.5449 8.47501 16.5901 8.11499 16.665 7.755C16.7549 7.41 16.905 7.095 17.1001 6.81C17.2949 6.54001 17.55 6.315 17.8501 6.14999C18.165 5.98499 18.54 5.91 18.99 5.91C19.23 5.91 19.47 5.94 19.6951 6.01501C19.905 6.09 20.115 6.19501 20.2949 6.32999C20.4751 6.48001 20.6101 6.63 20.73 6.81C20.8501 6.98999 20.925 7.185 20.9551 7.41L22.875 7.41C22.8149 6.91501 22.6799 6.465 22.4551 6.09C22.23 5.70001 21.9299 5.37 21.585 5.11499C21.24 4.85999 20.835 4.64999 20.3999 4.51501C19.95 4.38 19.4851 4.32001 18.99 4.32001C18.3 4.32001 17.6851 4.42499 17.1299 4.66501C16.575 4.89001 16.1101 5.22 15.7351 5.625C15.3601 6.03 15.0601 6.51001 14.865 7.065C14.655 7.62 14.55 8.20499 14.55 8.85001Q14.55 9.79501 14.865 10.605C15.0601 11.145 15.3601 11.625 15.7351 12.015Q15.782 12.0656 15.8306 12.1144Q16.3669 12.6506 17.1299 12.96C17.6851 13.2 18.3 13.305 18.99 13.305C19.5449 13.305 20.0549 13.23 20.52 13.065C20.9851 12.9 21.3899 12.675 21.7351 12.36Z" clip-rule="evenodd" fill="#FFFFFF" fill-opacity="1.000000" fill-rule="evenodd" mask="url(#mask_0_627)"/>
		<path id="Subtitles" d="" fill="#000000" fill-opacity="0.000000" fill-rule="nonzero"/>
	</g>
</svg>
