<svg width="24.000000" height="24.000000" viewBox="0 0 24 24" fill="none" xmlns="http://www.w3.org/2000/svg" xmlns:xlink="http://www.w3.org/1999/xlink">
	<desc>
			Created with Pixso.
	</desc>
	<defs/>
	<mask id="mask_0_603" fill="white">
		<path id="Volume" d="M21.3601 12C21.3601 16.725 18.0149 20.37 13.5 21.465L13.5 24C19.4851 22.86 24 17.91 24 12C24 6.07501 19.4851 1.125 13.5 0L13.5 2.51999C18.0149 3.61499 21.3601 7.26001 21.3601 12ZM3.58496 8.31L0 8.31L0 15.66L3.6001 15.66L10.5 23.25L10.5 0.720001L3.58496 8.31ZM18 11.985C18 9.60001 16.1101 7.57501 13.5 6.81L13.5 17.16C16.1101 16.395 18 14.385 18 11.985Z" clip-rule="evenodd" fill="" fill-opacity="1.000000" fill-rule="evenodd"/>
	</mask>
	<path id="Volume" d="M21.3601 12C21.3601 16.725 18.0149 20.37 13.5 21.465L13.5 24C19.4851 22.86 24 17.91 24 12C24 6.07501 19.4851 1.125 13.5 0L13.5 2.51999C18.0149 3.61499 21.3601 7.26001 21.3601 12ZM3.58496 8.31L0 8.31L0 15.66L3.6001 15.66L10.5 23.25L10.5 0.720001L3.58496 8.31ZM18 11.985C18 9.60001 16.1101 7.57501 13.5 6.81L13.5 17.16C16.1101 16.395 18 14.385 18 11.985Z" clip-rule="evenodd" fill="#FFFFFF" fill-opacity="1.000000" fill-rule="evenodd" mask="url(#mask_0_603)"/>
	<path id="Volume" d="" fill="#000000" fill-opacity="0.000000" fill-rule="nonzero"/>
</svg>
