<svg width="74.592285" height="22.691818" viewBox="0 0 74.5923 22.6918" fill="none" xmlns="http://www.w3.org/2000/svg" xmlns:xlink="http://www.w3.org/1999/xlink">
	<desc>
			Created with Pixso.
	</desc>
	<defs/>
	<path id="Combined Shape" d="M56.6748 20.8609C56.5312 21.4387 56.4055 21.8927 56.28 22.3762L53.3376 22.3762L53.3376 0L56.7705 0L56.7705 8.25471C56.9497 8.03065 57.0396 7.93633 57.1172 7.83609C57.7034 7.0401 58.4629 6.52122 59.4436 6.32076C61.0044 6.02005 62.3379 6.69812 62.8105 8.17807C63.1155 9.09789 63.3127 10.0826 63.3367 11.0436C63.3511 11.7897 63.3579 12.5353 63.3579 13.2807C63.3579 15.0034 63.3215 16.7249 63.259 18.4493C63.2231 19.204 62.9897 19.9764 62.6968 20.684C61.7339 23.0189 58.5884 23.3726 57.0276 21.3502C56.9319 21.2264 56.8423 21.0908 56.6748 20.8609ZM5.88452 11.5271C6.20142 10 6.50049 8.50826 6.82935 7.01062C7.24219 5.10612 7.70264 3.20164 8.10913 1.29128C8.21094 0.82547 8.40234 0.71344 8.85083 0.725235C9.5354 0.750397 10.2292 0.745728 10.9426 0.740936C11.2327 0.738998 11.5259 0.73703 11.823 0.73703C11.488 1.95164 11.1592 3.10732 10.8362 4.24529C9.81348 7.81839 8.79102 11.4033 7.78027 14.9882C7.70264 15.2653 7.66675 15.566 7.66675 15.8609C7.6626 16.5134 7.66138 17.1652 7.66138 17.8169C7.66138 18.4683 7.6626 19.1195 7.66406 19.7709C7.66528 20.4228 7.66675 21.0749 7.66675 21.7276L7.66675 22.3644L4.15625 22.3644C4.14429 22.1875 4.12036 22.0106 4.12036 21.8337C4.12036 21.4798 4.11133 21.1252 4.10205 20.7709C4.09302 20.4168 4.08374 20.063 4.08374 19.71C4.08374 19.3098 4.09546 18.9108 4.13232 18.5141C4.16455 18.1842 4.17944 17.8575 4.17944 17.5337C4.17944 15.5999 3.64966 13.7679 3.11987 11.9365C3.03003 11.6253 2.93994 11.3141 2.85254 11.0024C1.9436 7.75943 1.02271 4.50471 0.113525 1.2618C0.0656738 1.10849 0.0478516 0.94339 0 0.754715L3.58228 0.754715C4.33569 4.33372 5.09521 7.91273 5.88452 11.5271ZM31.7551 3.62619L35.3132 3.62619L35.3193 22.3644L38.8416 22.3644L38.8416 3.60851L42.376 3.60851L42.376 0.78421L31.7551 0.78421L31.7551 3.62619ZM74.5676 15.6368L68.5156 15.6368C68.5813 16.8337 68.6052 17.9717 68.731 19.0979C68.8206 19.8821 69.2571 20.2182 69.9448 20.2241C70.6626 20.2359 71.0811 19.8821 71.2485 19.1038C71.3025 18.8502 71.3384 18.5967 71.3623 18.3373C71.3862 18.1073 71.3979 17.8597 71.416 17.5295C72.4387 17.5826 73.4373 17.6415 74.4241 17.6828C74.5322 17.9994 74.5833 18.3329 74.5833 18.6703C74.5833 20.1234 73.6357 21.6468 72.2234 22.1875C70.8538 22.7182 69.4485 22.7182 68.0491 22.3113C67.0146 22.0106 66.2432 21.362 65.8962 20.3656C65.5732 19.434 65.2683 18.4611 65.2026 17.4882C65.1177 16.3546 65.0583 15.2157 65.0583 14.076C65.0583 12.8029 65.1326 11.5287 65.3281 10.2594C65.3938 9.85849 65.5076 9.47523 65.6331 9.08609C66.1355 7.48232 67.2297 6.49763 68.9224 6.33255C69.8433 6.24411 70.7939 6.27948 71.7031 6.43279C73.1743 6.68633 73.9575 7.72995 74.2986 9.09789C74.4539 9.74057 74.5676 10.4009 74.5916 11.0554C74.592 11.1921 74.5923 11.3287 74.5923 11.4653C74.5923 12.1389 74.5864 12.812 74.5803 13.4943C74.574 14.1954 74.5676 14.9061 74.5676 15.6368ZM20.9128 15.0354C20.9009 15.566 20.865 16.0967 20.8352 16.6274C20.6975 18.2193 20.6318 20.4776 19.3281 21.6391C18.4968 22.3703 17.4443 22.6356 16.356 22.671C15.8716 22.6828 15.3811 22.6828 14.8967 22.6179C12.6064 22.2759 11.5417 21.2795 11.1592 18.7972C10.9421 17.3734 10.8242 15.9379 10.8242 14.5023C10.8242 13.0487 10.9453 11.595 11.207 10.1533C11.7451 7.1875 13.5991 6.13797 16.4814 6.33255C19.1726 6.52122 20.3748 8.2606 20.6917 10.737C20.8386 11.9407 20.9211 13.1571 20.9211 14.3754C20.9211 14.5954 20.9185 14.8154 20.9128 15.0354ZM22.7668 6.62737L26.3789 6.62737L26.3789 7.29362C26.3789 8.17987 26.3782 9.06575 26.3774 9.95125C26.3767 10.836 26.3757 11.7204 26.3757 12.6044C26.3757 14.3734 26.3789 16.1409 26.3909 17.9068C26.3909 18.4139 26.4387 18.9387 26.5464 19.434C26.6838 20.0177 27.0308 20.2064 27.6228 20.1297C28.4419 20.0177 28.9385 19.4576 28.9443 18.638L28.9443 6.65094L32.5386 6.65094L32.5386 22.388L29.7456 22.388C29.644 21.8042 29.5425 21.2028 29.4109 20.4422C29.2314 20.7076 29.1296 20.8609 29.0281 21.0201C28.0952 22.3703 26.7854 22.8656 25.1887 22.6238C23.9089 22.4351 23.1255 21.5035 22.8865 19.9764C22.8206 19.4988 22.7727 19.0271 22.7727 18.5495C22.7607 14.7229 22.7607 10.8785 22.7607 7.05188L22.7668 6.62737ZM47.5129 6.63914L51.1072 6.63914L51.1072 22.388L48.3025 22.388C48.2007 21.7924 48.0991 21.1792 47.9795 20.4599C47.7881 20.737 47.6746 20.9139 47.5549 21.0908C46.6218 22.4174 45.3003 22.8715 43.7395 22.6297C42.4058 22.4174 41.6045 21.4033 41.425 19.7406C41.3713 19.2453 41.3474 18.7441 41.3474 18.2488C41.3433 17.0204 41.342 15.7908 41.342 14.5606C41.342 13.3301 41.3433 12.0991 41.3447 10.8685C41.3459 9.63879 41.3474 8.40955 41.3474 7.18161L41.3474 6.62737L44.9834 6.62737L44.9834 7.27005C44.9834 8.16049 44.9827 9.05057 44.9819 9.94046C44.9812 10.83 44.9805 11.7193 44.9805 12.6087C44.9805 14.388 44.9834 16.1673 44.9954 17.9481C44.9954 18.4552 45.0491 18.9799 45.1389 19.487C45.2405 20.0059 45.6233 20.1946 46.1375 20.1592C46.9688 20.0943 47.543 19.487 47.543 18.6734L47.543 7.3349C47.5129 7.10495 47.5129 6.89268 47.5129 6.63914ZM71.1304 12.6808C71.1296 12.9726 71.1289 13.2676 71.1289 13.5672C70.3215 13.5672 69.4905 13.5672 68.5754 13.579C68.5732 13.3232 68.5671 13.0676 68.5613 12.8123C68.5537 12.4929 68.5461 12.1742 68.5461 11.8562C68.5461 11.0398 68.5955 10.2289 68.8206 9.42807C68.9463 8.97406 69.269 8.72052 69.7773 8.72052C70.2856 8.72052 70.7104 8.85612 70.9136 9.35141C71.0154 9.60495 71.1169 9.88208 71.1169 10.1474C71.1289 10.7076 71.1318 11.2662 71.1318 11.833C71.1318 12.1132 71.1313 12.3954 71.1304 12.6808ZM17.2568 13.6282C17.2549 13.9167 17.2529 14.2051 17.2529 14.4929C17.2529 15.8549 17.1753 17.217 17.1333 18.5731C17.1333 18.9151 17.0137 19.263 16.8762 19.5814C16.7029 19.9941 16.3918 20.2241 15.9194 20.2241C15.4351 20.2241 15.0642 19.9882 14.9207 19.5578C14.6641 18.792 14.6033 17.9862 14.6033 17.1735C14.6033 16.8072 14.6155 16.4395 14.6279 16.0734C14.6384 15.757 14.6492 15.4418 14.6516 15.1297C14.6636 13.5495 14.6755 11.9634 14.6755 10.3833C14.6755 10.1533 14.7473 9.91745 14.813 9.6875C15.0044 9.06839 15.3752 8.75 15.9014 8.7382C16.4397 8.72641 16.8704 9.04482 17.0137 9.71109C17.1394 10.2889 17.217 10.8785 17.241 11.4623C17.2563 11.8944 17.2607 12.3276 17.2607 12.7609C17.2607 13.05 17.2588 13.3392 17.2568 13.6282ZM56.8423 18.7972L56.8423 10.6132C56.8423 9.92336 57.177 9.40448 57.7273 9.03891C58.4568 8.56133 59.1985 8.80307 59.4675 9.62263C59.6111 10.0766 59.7246 10.5601 59.7246 11.0259C59.7068 13.5318 59.647 16.0318 59.5811 18.5318C59.5752 18.7972 59.4614 19.0625 59.3479 19.316C59.0789 19.9234 58.5405 20.1769 57.8767 20.0236C57.2009 19.8703 56.8423 19.4634 56.8423 18.7972Z" clip-rule="evenodd" fill="#000000" fill-opacity="1.000000" fill-rule="evenodd"/>
</svg>
