<svg width="36.639893" height="24.989517" viewBox="0 0 36.6399 24.9895" fill="none" xmlns="http://www.w3.org/2000/svg" xmlns:xlink="http://www.w3.org/1999/xlink">
	<desc>
			Created with Pixso.
	</desc>
	<defs/>
	<path id="Shape" d="M19.1321 24.9575L11.6147 24.8219C11.1401 24.8127 10.665 24.8089 10.1902 24.8051C8.23096 24.7893 6.27539 24.7736 4.35474 24.3797C0.724854 23.6485 0.467773 20.0636 0.198486 17.0566C-0.172119 12.829 -0.0288086 8.52472 0.670898 4.3325C1.06567 1.9799 2.62061 0.576599 5.02466 0.423309C13.1399 -0.130936 21.3088 -0.0660858 29.406 0.193344C30.2612 0.216934 31.1223 0.346649 31.9656 0.494064C36.1279 1.21339 36.2295 5.27589 36.4985 8.69571C36.7678 12.1509 36.6541 15.6238 36.1399 19.0554C35.7271 21.8974 34.9377 24.2794 31.6067 24.5094C27.4326 24.8101 23.354 25.0518 19.168 24.9752C19.168 24.9575 19.144 24.9575 19.1321 24.9575ZM24.0718 12.4634C20.9441 14.2323 17.8582 15.9834 14.7126 17.7641L14.7126 7.16269C17.8403 8.93156 20.9202 10.6827 24.0718 12.4634Z" clip-rule="evenodd" fill="#FF0000" fill-opacity="1.000000" fill-rule="evenodd"/>
</svg>
